<svg xmlns="http://www.w3.org/2000/svg" width="198.486" height="83.571" viewBox="0 0 198.486 83.571"><defs><style>.a{fill:#0a213e;}</style></defs><g transform="translate(-535.74 632.418)"><path class="a" d="M35.422-20.381c-.178-3.738-.8-5.874-2.314-8.277a15.415,15.415,0,0,0-13.261-7.209c-8.9,0-16.732,8.544-16.732,18.334S11.214.89,20.292.89c7.12,0,13.083-5.162,14.507-12.638H32.663C30.972-5.073,26.522-1.157,20.826-1.157c-3.382,0-5.963-1.424-7.3-4.094C12.549-7.12,12.371-8.989,12.371-17.8v-2.581Zm-23.051-1.78c0-6.675,0-6.675.979-8.455,1.068-2.047,3.471-3.2,6.408-3.2,2.759,0,4.9,1.246,5.7,3.471.623,1.6.712,2.314.712,8.188Zm59.274-37.2H57.672v1.78h5.963v28.925c-2.937-4.984-6.141-7.209-10.591-7.209-8.1,0-14.774,8.188-14.774,18.245C38.27-7.476,45.034.89,53.222.89c4.717,0,8.455-2.759,10.413-7.654V0H77.608V-1.78H71.645ZM54.023-33.82c5.429,0,9.434,6.942,9.434,16.2,0,9.434-4,16.465-9.345,16.465a6.01,6.01,0,0,1-5.251-3.471c-.89-1.78-1.068-3.56-1.068-11.748,0-9.612.356-12.905,1.424-14.685A5.958,5.958,0,0,1,54.023-33.82ZM101.282-1.958c-2.581,0-4.45,0-4.806.089-6.052.089-6.052.089-6.942.089-4.539,0-6.052-.8-6.052-3.293,0-2.314,2.047-4.806,5.963-7.3a14.2,14.2,0,0,0,6.586,1.424c8.544,0,14.418-4.984,14.418-12.282a12.806,12.806,0,0,0-2.759-7.921c1.068-1.157,1.424-1.424,2.047-1.424.534,0,.8.445.979,1.424.356,1.78,1.335,2.67,3.026,2.67a3.234,3.234,0,0,0,3.2-3.382,3.855,3.855,0,0,0-4.094-4c-2.136,0-3.916.979-6.408,3.649A14.319,14.319,0,0,0,96.3-35.867c-8.01,0-14.062,5.429-14.062,12.46,0,4.005,1.691,7.12,5.518,10.146C82.5-9.879,79.922-6.141,79.922-2.136c0,3.916,2.4,6.675,6.675,7.832-4.45,1.424-7.031,4.272-7.031,7.832,0,5.874,7.12,10.68,16.02,10.68,11.125,0,18.779-6.853,18.779-16.732,0-3.649-1.157-6.408-3.293-7.921-1.78-1.157-3.382-1.513-7.209-1.513ZM96.3-34.087c2.492,0,3.916.534,4.717,1.78.8,1.068.979,2.67.979,8.01,0,5.785-.267,7.921-1.068,9.256-.89,1.513-2.492,2.225-4.717,2.225-4.272,0-5.518-1.869-5.518-8.366,0-5.963.178-8.9.8-10.324C92.115-33.286,93.717-34.087,96.3-34.087ZM88.021,5.7a29.572,29.572,0,0,0,4.984.267c1.068,0,7.565-.089,9.345-.178,2.225-.089,3.916-.089,4.272-.089,3.649,0,4.984.979,4.984,3.738,0,7.12-6.853,12.549-15.753,12.549-6.5,0-10.858-3.827-10.858-9.345A9.334,9.334,0,0,1,88.021,5.7Zm60.431-26.077c-.178-3.738-.8-5.874-2.314-8.277a15.415,15.415,0,0,0-13.261-7.209c-8.9,0-16.732,8.544-16.732,18.334S124.244.89,133.322.89c7.12,0,13.083-5.162,14.507-12.638h-2.136C144-5.073,139.552-1.157,133.856-1.157c-3.382,0-5.963-1.424-7.3-4.094C125.579-7.12,125.4-8.989,125.4-17.8v-2.581ZM125.4-22.161c0-6.675,0-6.675.979-8.455,1.068-2.047,3.471-3.2,6.408-3.2,2.759,0,4.9,1.246,5.7,3.471.623,1.6.712,2.314.712,8.188Z" transform="translate(585.774 -573.055)"/><path class="a" d="M7.308-22.932H6.636a11.7,11.7,0,0,1-5.67,6.678v.588H3.528V-5c0,2.6.084,3.024.8,3.906A4.4,4.4,0,0,0,7.938.42C10.458.42,11.97-.8,12.39-3.15h-.882C11.214-1.6,10.5-.882,9.24-.882a1.776,1.776,0,0,1-1.6-.8c-.294-.42-.336-.84-.336-2.058V-15.666h4.2v-.84h-4.2ZM15.246-.84H12.432V0h9.114V-.84h-2.52V-6.93c0-3.108.168-4.536.672-5.8a4.6,4.6,0,0,1,4.284-2.982,2.61,2.61,0,0,1,2.184.924c.378.588.462,1.05.462,3.948v10h-2.52V0H33.18V-.84H30.408v-10c0-2.94-.168-3.654-.882-4.536A5.592,5.592,0,0,0,25.2-16.926a6.666,6.666,0,0,0-6.174,3.4v-14.49H12.432v.84h2.814Zm34.1-8.778a7.164,7.164,0,0,0-1.092-3.906A7.274,7.274,0,0,0,42-16.926c-4.2,0-7.9,4.032-7.9,8.652S37.926.42,42.21.42a7.036,7.036,0,0,0,6.846-5.964H48.048c-.8,3.15-2.9,5-5.586,5a3.6,3.6,0,0,1-3.444-1.932c-.462-.882-.546-1.764-.546-5.922V-9.618Zm-10.878-.84c0-3.15,0-3.15.462-3.99a3.247,3.247,0,0,1,3.024-1.512,2.65,2.65,0,0,1,2.688,1.638c.294.756.336,1.092.336,3.864Z" transform="translate(534.774 -573.055)"/><path class="a" d="M2.185-.38H.608V0H5.149C7.562,0,8.512-.19,9.4-.836a3.021,3.021,0,0,0,1.33-2.489c0-1.919-1.368-3.1-3.819-3.306C9.082-7.068,10.2-8.075,10.2-9.614A2.63,2.63,0,0,0,9.044-11.8c-.969-.684-1.9-.874-4.237-.874H.608v.38H2.185ZM4.218-12.293H4.75c1.539,0,2.109.114,2.6.532a2.965,2.965,0,0,1,.779,2.28c0,1.919-.836,2.7-2.869,2.7-.266,0-.418,0-1.045-.019Zm0,11.913V-6.4c.494-.038.817-.038,1.1-.038,2.318,0,3.135.8,3.135,3.078a3.069,3.069,0,0,1-.8,2.451c-.456.4-1.026.532-2.3.532ZM18.6-4.351a3.241,3.241,0,0,0-.494-1.767,3.291,3.291,0,0,0-2.831-1.539A3.852,3.852,0,0,0,11.7-3.743,3.922,3.922,0,0,0,15.371.19a3.183,3.183,0,0,0,3.1-2.7h-.456A2.646,2.646,0,0,1,15.485-.247a1.627,1.627,0,0,1-1.558-.874c-.209-.4-.247-.8-.247-2.679v-.551Zm-4.921-.38c0-1.425,0-1.425.209-1.805a1.469,1.469,0,0,1,1.368-.684,1.2,1.2,0,0,1,1.216.741,4.192,4.192,0,0,1,.152,1.748ZM20.387-.38H19.114V0h4.237V-.38H22.1V-2.147c0-2.2.19-3.287.76-4.256.171-.285.38-.475.513-.475.152,0,.171.057.19.4a.849.849,0,0,0,.855.893.93.93,0,0,0,.931-.969,1.105,1.105,0,0,0-1.2-1.1c-.874,0-1.539.646-2.052,1.995v-1.8H19.114v.38h1.273Zm7.676-12.293H25.08v.38h1.273V-.38H25.08V0h4.237V-.38H28.063Zm1.615,7.885,2.375-2.3h1.33v-.38H29.545v.38h1.862l-3.173,3.1L30.97-.38H30V0h4.085V-.38h-.874Zm9.595-2.774h-.285l-.3.608a2.716,2.716,0,0,0-1.843-.7A2.218,2.218,0,0,0,34.6-5.339a2.438,2.438,0,0,0,.57,1.634,3.146,3.146,0,0,0,2.014.779c1.349.228,1.786.513,1.786,1.235a1.566,1.566,0,0,1-1.71,1.444,2.171,2.171,0,0,1-1.786-.912,5.343,5.343,0,0,1-.684-1.691h-.266L34.58,0h.209l.456-.608a2.9,2.9,0,0,0,1.995.8,2.429,2.429,0,0,0,2.432-2.546,2.427,2.427,0,0,0-.494-1.558,3.1,3.1,0,0,0-2.071-.912c-1.463-.247-1.862-.494-1.862-1.064a1.5,1.5,0,0,1,1.634-1.33,2.143,2.143,0,0,1,2.166,1.9h.285ZM41.249-.38H39.976V0H44.1V-.38h-1.14V-3.135a6.887,6.887,0,0,1,.3-2.622A2.081,2.081,0,0,1,45.2-7.106a1.181,1.181,0,0,1,.988.418c.171.266.209.475.209,1.786V-.38h-1.14V0h4.1V-.38H48.108V-4.9c0-1.33-.076-1.653-.4-2.052a2.53,2.53,0,0,0-1.957-.7,3.015,3.015,0,0,0-2.793,1.539v-6.555H39.976v.38h1.273Zm9.709,0H49.685V0h4.237V-.38H52.668V-7.467H49.685v.38h1.273Zm.779-12.046a1.023,1.023,0,0,0-1.045,1.064,1.044,1.044,0,0,0,1.045,1.1A1.067,1.067,0,0,0,52.8-11.343,1.067,1.067,0,0,0,51.737-12.426ZM55.518-.38H54.245V0h4.237V-.38H57.228V-2.147c0-2.2.19-3.287.76-4.256.171-.285.38-.475.513-.475.152,0,.171.057.19.4a.849.849,0,0,0,.855.893.93.93,0,0,0,.931-.969,1.105,1.105,0,0,0-1.2-1.1c-.874,0-1.539.646-2.052,1.995v-1.8H54.245v.38h1.273ZM67.564-4.351a3.241,3.241,0,0,0-.494-1.767,3.291,3.291,0,0,0-2.831-1.539,3.852,3.852,0,0,0-3.572,3.914A3.922,3.922,0,0,0,64.334.19a3.183,3.183,0,0,0,3.1-2.7h-.456A2.646,2.646,0,0,1,64.448-.247a1.627,1.627,0,0,1-1.558-.874c-.209-.4-.247-.8-.247-2.679v-.551Zm-4.921-.38c0-1.425,0-1.425.209-1.805A1.469,1.469,0,0,1,64.22-7.22a1.2,1.2,0,0,1,1.216.741,4.192,4.192,0,0,1,.152,1.748Z" transform="translate(574.774 -613.055)"/></g></svg>