<svg xmlns="http://www.w3.org/2000/svg" width="164.938" height="38.499" viewBox="0 0 164.938 38.499"><defs><style>.a{fill:#fff;}</style></defs><path class="a" d="M2.784-8.736H2.528A4.457,4.457,0,0,1,.368-6.192v.224h.976V-1.9c0,.992.032,1.152.3,1.488A1.676,1.676,0,0,0,3.024.16,1.538,1.538,0,0,0,4.72-1.2H4.384C4.272-.608,4-.336,3.52-.336a.677.677,0,0,1-.608-.3C2.8-.8,2.784-.96,2.784-1.424V-5.968h1.6v-.32h-1.6ZM5.808-.32H4.736V0H8.208V-.32h-.96V-2.64A5.8,5.8,0,0,1,7.5-4.848,1.753,1.753,0,0,1,9.136-5.984a.994.994,0,0,1,.832.352c.144.224.176.4.176,1.5V-.32h-.96V0H12.64V-.32H11.584V-4.128c0-1.12-.064-1.392-.336-1.728A2.13,2.13,0,0,0,9.6-6.448a2.539,2.539,0,0,0-2.352,1.3v-5.52H4.736v.32H5.808ZM18.8-3.664a2.729,2.729,0,0,0-.416-1.488A2.771,2.771,0,0,0,16-6.448a3.244,3.244,0,0,0-3.008,3.3A3.3,3.3,0,0,0,16.08.16a2.68,2.68,0,0,0,2.608-2.272H18.3a2.228,2.228,0,0,1-2.128,1.9,1.37,1.37,0,0,1-1.312-.736c-.176-.336-.208-.672-.208-2.256v-.464Zm-4.144-.32c0-1.2,0-1.2.176-1.52a1.237,1.237,0,0,1,1.152-.576,1.009,1.009,0,0,1,1.024.624,3.53,3.53,0,0,1,.128,1.472ZM21.282-.44H19.456V0h5.258c2.794,0,3.894-.22,4.928-.968a3.5,3.5,0,0,0,1.54-2.882c0-2.222-1.584-3.586-4.422-3.828,2.508-.506,3.806-1.672,3.806-3.454a3.045,3.045,0,0,0-1.342-2.53c-1.122-.792-2.2-1.012-4.906-1.012H19.456v.44h1.826Zm2.354-13.794h.616c1.782,0,2.442.132,3.014.616a3.433,3.433,0,0,1,.9,2.64c0,2.222-.968,3.124-3.322,3.124-.308,0-.484,0-1.21-.022Zm0,13.794V-7.414c.572-.044.946-.044,1.276-.044,2.684,0,3.63.924,3.63,3.564a3.553,3.553,0,0,1-.924,2.838c-.528.462-1.188.616-2.662.616Zm16.654-4.6a3.753,3.753,0,0,0-.572-2.046A3.81,3.81,0,0,0,36.44-8.866,4.46,4.46,0,0,0,32.3-4.334,4.541,4.541,0,0,0,36.55.22,3.685,3.685,0,0,0,40.136-2.9h-.528A3.063,3.063,0,0,1,36.682-.286a1.884,1.884,0,0,1-1.8-1.012c-.242-.462-.286-.924-.286-3.1v-.638Zm-5.7-.44c0-1.65,0-1.65.242-2.09a1.7,1.7,0,0,1,1.584-.792,1.388,1.388,0,0,1,1.408.858A4.854,4.854,0,0,1,38-5.478ZM42.358-.44H40.884V0H45.79V-.44H44.338V-2.486c0-2.552.22-3.806.88-4.928.2-.33.44-.55.594-.55.176,0,.2.066.22.462a.983.983,0,0,0,.99,1.034A1.077,1.077,0,0,0,48.1-7.59a1.279,1.279,0,0,0-1.386-1.276c-1.012,0-1.782.748-2.376,2.31v-2.09H40.884v.44h1.474Zm8.888-14.234H47.792v.44h1.474V-.44H47.792V0H52.7V-.44H51.246Zm1.87,9.13,2.75-2.662h1.54v-.44H52.962v.44h2.156L51.444-4.62,54.612-.44H53.49V0h4.73V-.44H57.208Zm11.11-3.212H63.9l-.352.7a3.145,3.145,0,0,0-2.134-.814,2.568,2.568,0,0,0-2.6,2.684,2.823,2.823,0,0,0,.66,1.892,3.643,3.643,0,0,0,2.332.9c1.562.264,2.068.594,2.068,1.43a1.813,1.813,0,0,1-1.98,1.672,2.513,2.513,0,0,1-2.068-1.056A6.187,6.187,0,0,1,59.034-3.3h-.308L58.792,0h.242l.528-.7a3.359,3.359,0,0,0,2.31.924,2.813,2.813,0,0,0,2.816-2.948,2.81,2.81,0,0,0-.572-1.8,3.587,3.587,0,0,0-2.4-1.056c-1.694-.286-2.156-.572-2.156-1.232a1.731,1.731,0,0,1,1.892-1.54,2.482,2.482,0,0,1,2.508,2.2h.33ZM66.514-.44H65.04V0h4.774V-.44h-1.32V-3.63a7.974,7.974,0,0,1,.352-3.036A2.41,2.41,0,0,1,71.09-8.228a1.367,1.367,0,0,1,1.144.484c.2.308.242.55.242,2.068V-.44h-1.32V0h4.752V-.44H74.456V-5.676c0-1.54-.088-1.914-.462-2.376a2.929,2.929,0,0,0-2.266-.814,3.491,3.491,0,0,0-3.234,1.782v-7.59H65.04v.44h1.474Zm11.242,0H76.282V0h4.906V-.44H79.736V-8.646H76.282v.44h1.474Zm.9-13.948a1.185,1.185,0,0,0-1.21,1.232,1.209,1.209,0,0,0,1.21,1.276,1.235,1.235,0,0,0,1.232-1.254A1.235,1.235,0,0,0,78.658-14.388ZM83.036-.44H81.562V0h4.906V-.44H85.016V-2.486c0-2.552.22-3.806.88-4.928.2-.33.44-.55.594-.55.176,0,.2.066.22.462a.983.983,0,0,0,.99,1.034A1.077,1.077,0,0,0,88.778-7.59a1.279,1.279,0,0,0-1.386-1.276c-1.012,0-1.782.748-2.376,2.31v-2.09H81.562v.44h1.474Zm13.948-4.6a3.752,3.752,0,0,0-.572-2.046,3.81,3.81,0,0,0-3.278-1.782A4.46,4.46,0,0,0,89-4.334,4.541,4.541,0,0,0,93.244.22,3.685,3.685,0,0,0,96.83-2.9H96.3A3.063,3.063,0,0,1,93.376-.286a1.884,1.884,0,0,1-1.8-1.012c-.242-.462-.286-.924-.286-3.1v-.638Zm-5.7-.44c0-1.65,0-1.65.242-2.09a1.7,1.7,0,0,1,1.584-.792A1.388,1.388,0,0,1,94.52-7.5,4.854,4.854,0,0,1,94.7-5.478Zm21.95-3.911A6.993,6.993,0,0,0,112.17-13.2a7.1,7.1,0,0,0-6.109-3.321c-4.1,0-7.708,3.936-7.708,8.446S102.084.41,106.266.41a6.868,6.868,0,0,0,6.683-5.822h-.984c-.779,3.075-2.829,4.879-5.453,4.879a3.511,3.511,0,0,1-3.362-1.886c-.451-.861-.533-1.722-.533-5.781V-9.389Zm-10.619-.82c0-3.075,0-3.075.451-3.9a3.17,3.17,0,0,1,2.952-1.476,2.586,2.586,0,0,1,2.624,1.6c.287.738.328,1.066.328,3.772Zm27.306-17.138h-6.437v.82h2.747V-13.2c-1.353-2.3-2.829-3.321-4.879-3.321-3.731,0-6.806,3.772-6.806,8.405,0,4.674,3.116,8.528,6.888,8.528a5.074,5.074,0,0,0,4.8-3.526V0h6.437V-.82h-2.747ZM121.805-15.58c2.5,0,4.346,3.2,4.346,7.462,0,4.346-1.845,7.585-4.305,7.585a2.768,2.768,0,0,1-2.419-1.6c-.41-.82-.492-1.64-.492-5.412,0-4.428.164-5.945.656-6.765A2.745,2.745,0,0,1,121.805-15.58ZM143.576-.9c-1.189,0-2.05,0-2.214.041-2.788.041-2.788.041-3.2.041-2.091,0-2.788-.369-2.788-1.517,0-1.066.943-2.214,2.747-3.362a6.54,6.54,0,0,0,3.034.656c3.936,0,6.642-2.3,6.642-5.658a5.9,5.9,0,0,0-1.271-3.649c.492-.533.656-.656.943-.656.246,0,.369.2.451.656a1.318,1.318,0,0,0,1.394,1.23,1.49,1.49,0,0,0,1.476-1.558,1.776,1.776,0,0,0-1.886-1.845c-.984,0-1.8.451-2.952,1.681a6.6,6.6,0,0,0-4.674-1.681c-3.69,0-6.478,2.5-6.478,5.74a5.661,5.661,0,0,0,2.542,4.674c-2.419,1.558-3.608,3.28-3.608,5.125,0,1.8,1.107,3.075,3.075,3.608-2.05.656-3.239,1.968-3.239,3.608,0,2.706,3.28,4.92,7.38,4.92,5.125,0,8.651-3.157,8.651-7.708A4.252,4.252,0,0,0,148.086-.2a5.335,5.335,0,0,0-3.321-.7Zm-2.3-14.8c1.148,0,1.8.246,2.173.82.369.492.451,1.23.451,3.69,0,2.665-.123,3.649-.492,4.264A2.311,2.311,0,0,1,141.239-5.9c-1.968,0-2.542-.861-2.542-3.854,0-2.747.082-4.1.369-4.756C139.353-15.334,140.091-15.7,141.28-15.7ZM137.467,2.624a13.623,13.623,0,0,0,2.3.123c.492,0,3.485-.041,4.3-.082,1.025-.041,1.8-.041,1.968-.041,1.681,0,2.3.451,2.3,1.722,0,3.28-3.157,5.781-7.257,5.781-2.993,0-5-1.763-5-4.3A4.3,4.3,0,0,1,137.467,2.624ZM165.306-9.389A6.993,6.993,0,0,0,164.24-13.2a7.1,7.1,0,0,0-6.109-3.321c-4.1,0-7.708,3.936-7.708,8.446S154.154.41,158.336.41a6.868,6.868,0,0,0,6.683-5.822h-.984c-.779,3.075-2.829,4.879-5.453,4.879a3.512,3.512,0,0,1-3.362-1.886c-.451-.861-.533-1.722-.533-5.781V-9.389Zm-10.619-.82c0-3.075,0-3.075.451-3.9a3.17,3.17,0,0,1,2.952-1.476,2.586,2.586,0,0,1,2.624,1.6c.287.738.328,1.066.328,3.772Z" transform="translate(-0.368 27.347)"/></svg>