<svg xmlns="http://www.w3.org/2000/svg" width="156.977" height="400.81" viewBox="0 0 156.977 400.81"><defs><style>.a{fill:#689dde;opacity:0.5;mix-blend-mode:multiply;isolation:isolate;}</style></defs><path class="a" d="M129.992,400.81H26.983l7.109-66.391h88.793l7.106,66.391Zm10.948-79.561H16.035L35.364,301.83h86.25l19.324,19.417Zm-66.39-27.742H30.611c.006-.069.6-7.418-.655-20.973-.73-7.893-1.937-16.272-3.588-24.907a339.47,339.47,0,0,0-8.222-33.356C10.462,188.586,5.937,175.965,3.495,169.9.849,163.33.008,162.824,0,162.82c.092-.126,10.158-13.923,21.589-31.848,6.654-10.433,12.4-20.123,17.087-28.8,5.856-10.846,10.055-20.13,12.482-27.6,3.034-9.333,7.849-25.507,13.561-49.563C68.1,10.763,70.213.433,70.3,0h4.248V136.134a15.256,15.256,0,0,0-6.808,25.477,15.187,15.187,0,0,0,22.693-20.089,15.244,15.244,0,0,0-8.006-5.37V0h4.248c.018.087,2.154,10.58,5.581,25.014,3.153,13.278,8.065,32.655,13.561,49.563,2.427,7.466,6.627,16.75,12.482,27.6,4.685,8.677,10.434,18.366,17.087,28.8,11.322,17.753,21.488,31.709,21.589,31.848-.008,0-.844.5-3.495,7.08-2.443,6.065-6.967,18.687-14.651,44.371a339.47,339.47,0,0,0-8.222,33.356c-1.651,8.634-2.858,17.014-3.587,24.907a137.58,137.58,0,0,0-.655,20.972H82.428v-.114h-7.88v.114Z"/></svg>